<svg width="50" height="50" viewBox="0 0 50 50" fill="none" xmlns="http://www.w3.org/2000/svg">
<path d="M25.0687 48.8629C38.2856 48.8629 49.0001 38.1484 49.0001 24.9315C49.0001 11.7145 38.2856 1 25.0687 1C11.8517 1 1.13721 11.7145 1.13721 24.9315C1.13721 38.1484 11.8517 48.8629 25.0687 48.8629Z" stroke="#020202" stroke-miterlimit="10"/>
<path d="M25.0687 15.5506C28.1155 15.5506 28.4848 15.569 29.6851 15.6244C30.793 15.6798 31.4024 15.8645 31.8086 16.0122C32.3441 16.2153 32.7319 16.4739 33.1197 16.8616C33.5259 17.2679 33.766 17.6372 33.9691 18.1727C34.1168 18.5789 34.3199 19.1883 34.3569 20.2962C34.4123 21.4965 34.4307 21.8658 34.4307 24.9126C34.4307 27.9595 34.4123 28.3288 34.3569 29.5291C34.3015 30.637 34.1168 31.2464 33.9691 31.6526C33.766 32.1881 33.5074 32.5759 33.1197 32.9637C32.7134 33.3699 32.3441 33.61 31.8086 33.8131C31.4024 33.9608 30.793 34.1639 29.6851 34.2009C28.4848 34.2563 28.1155 34.2747 25.0687 34.2747C22.0218 34.2747 21.6525 34.2563 20.4522 34.2009C19.3443 34.1455 18.7349 33.9608 18.3287 33.8131C17.7932 33.61 17.4054 33.3514 17.0176 32.9637C16.6114 32.5574 16.3713 32.1881 16.1682 31.6526C16.0205 31.2464 15.8174 30.637 15.7804 29.5291C15.725 28.3288 15.7066 27.9595 15.7066 24.9126C15.7066 21.8658 15.725 21.4965 15.7804 20.2962C15.8358 19.1883 16.0205 18.5789 16.1682 18.1727C16.3713 17.6372 16.6299 17.2494 17.0176 16.8616C17.4239 16.4554 17.7932 16.2153 18.3287 16.0122C18.7349 15.8645 19.3443 15.6614 20.4522 15.6244C21.6525 15.569 22.0218 15.5506 25.0687 15.5506ZM25.0687 13.4824C21.9664 13.4824 21.5786 13.5009 20.3599 13.5563C19.1412 13.6117 18.3102 13.7963 17.5901 14.0918C16.833 14.3872 16.2051 14.775 15.5589 15.4028C14.931 16.0307 14.5248 16.677 14.2478 17.4341C13.9708 18.1542 13.7677 18.9852 13.7123 20.2039C13.6569 21.4226 13.6384 21.8104 13.6384 24.9126C13.6384 28.0149 13.6569 28.4026 13.7123 29.6214C13.7677 30.8401 13.9523 31.6711 14.2478 32.3912C14.5432 33.1483 14.931 33.7761 15.5589 34.4224C16.1867 35.0503 16.833 35.4565 17.5901 35.7335C18.3102 36.0105 19.1412 36.2136 20.3599 36.269C21.5786 36.3244 21.9664 36.3429 25.0687 36.3429C28.1709 36.3429 28.5587 36.3244 29.7774 36.269C30.9961 36.2136 31.8271 36.029 32.5472 35.7335C33.3043 35.4381 33.9322 35.0503 34.5784 34.4224C35.2063 33.7946 35.6125 33.1483 35.8895 32.3912C36.1665 31.6711 36.3696 30.8401 36.425 29.6214C36.4804 28.4026 36.4989 28.0149 36.4989 24.9126C36.4989 21.8104 36.4804 21.4226 36.425 20.2039C36.3696 18.9852 36.185 18.1542 35.8895 17.4341C35.5941 16.677 35.2063 16.0491 34.5784 15.4028C33.9506 14.775 33.3043 14.3688 32.5472 14.0918C31.8271 13.8148 30.9961 13.6117 29.7774 13.5563C28.5587 13.5009 28.1709 13.4824 25.0687 13.4824Z" fill="black"/>
<path d="M25.0688 19.058C21.8189 19.058 19.1968 21.6801 19.1968 24.9301C19.1968 28.18 21.8189 30.8021 25.0688 30.8021C28.3188 30.8021 30.9409 28.18 30.9409 24.9301C30.9409 21.6801 28.3188 19.058 25.0688 19.058ZM25.0688 28.7524C22.9638 28.7524 21.2465 27.0536 21.2465 24.9301C21.2465 22.8065 22.9453 21.1077 25.0688 21.1077C27.1924 21.1077 28.8912 22.8065 28.8912 24.9301C28.8912 27.0536 27.1739 28.7524 25.0688 28.7524Z" fill="black"/>
<path d="M31.1804 20.1853C31.9351 20.1853 32.5469 19.5735 32.5469 18.8188C32.5469 18.0642 31.9351 17.4524 31.1804 17.4524C30.4257 17.4524 29.814 18.0642 29.814 18.8188C29.814 19.5735 30.4257 20.1853 31.1804 20.1853Z" fill="black"/>
</svg>
