<svg width="79" height="72" viewBox="0 0 79 72" fill="none" xmlns="http://www.w3.org/2000/svg">
<path d="M0 26.7687L7.25406 23.556V50.1542L0 46.9189V26.7687Z" fill="#DF9065"/>
<path d="M79.0003 15.4276V23.5558L43.116 7.69679L7.25439 23.5558V15.4731L34.3067 3.80299L43.116 0L51.948 3.80299L79.0003 15.4276Z" fill="#DF9065"/>
<path d="M7.2431 58.2029H7.25446V58.3618L7.2431 58.2369V58.2029Z" fill="#DF9065"/>
<path d="M79.0003 50.1199V58.18L64.7987 64.3102L51.9367 69.8614C49.1213 71.0761 46.113 71.6891 43.116 71.6891C40.1304 71.6891 37.122 71.0875 34.3294 69.8728L34.2953 69.8614L7.25439 58.2027V50.154L37.6329 63.5382C41.1407 65.0821 45.1253 65.0821 48.6218 63.5382L79.0003 50.1199Z" fill="#DF9065"/>
</svg>
