<svg width="50" height="50" viewBox="0 0 50 50" fill="none" xmlns="http://www.w3.org/2000/svg">
<path d="M24.9315 48.8629C38.1484 48.8629 48.8629 38.1484 48.8629 24.9315C48.8629 11.7145 38.1484 1 24.9315 1C11.7145 1 1 11.7145 1 24.9315C1 38.1484 11.7145 48.8629 24.9315 48.8629Z" stroke="#020202" stroke-miterlimit="10"/>
<path fill-rule="evenodd" clip-rule="evenodd" d="M35.0512 15.1266C32.7983 12.8738 29.8069 11.6366 26.6308 11.6366C20.0755 11.6366 14.7205 16.9732 14.7205 23.5469C14.7205 25.652 15.2745 27.7017 16.3085 29.4929L14.6282 35.6604L20.9434 33.9985C22.6792 34.9402 24.6365 35.4388 26.6308 35.4388C33.1861 35.4388 38.5412 30.1022 38.5412 23.5285C38.5412 20.3708 37.304 17.3794 35.0512 15.1266ZM26.6308 33.4445C24.8581 33.4445 23.1039 32.9644 21.5897 32.0596L21.2204 31.838L17.4719 32.8167L18.469 29.1605L18.229 28.7912C17.2318 27.2216 16.7148 25.3935 16.7148 23.5285C16.7148 18.0811 21.165 13.6309 26.6124 13.6309C29.2529 13.6309 31.7458 14.665 33.6108 16.53C35.4759 18.395 36.5099 20.8879 36.5099 23.5285C36.5284 29.0128 32.0782 33.4445 26.6308 33.4445ZM32.0597 26.0398C31.7643 25.8921 30.3055 25.1719 30.0285 25.0796C29.7515 24.9872 29.5484 24.9318 29.3637 25.2273C29.1606 25.5227 28.5882 26.1875 28.422 26.3906C28.2558 26.5938 28.0712 26.6122 27.7757 26.4645C27.4803 26.3168 26.52 26.0029 25.3752 24.9872C24.4888 24.1932 23.8979 23.233 23.7133 22.9191C23.5286 22.6052 23.6948 22.4575 23.8425 22.3097C23.9718 22.1805 24.138 21.9589 24.2857 21.7927C24.4334 21.6265 24.4888 21.4972 24.5811 21.2941C24.6735 21.091 24.6365 20.9248 24.5627 20.7771C24.4888 20.6294 23.8979 19.1706 23.6394 18.5612C23.3993 17.9888 23.1593 18.0626 22.9746 18.0442C22.8084 18.0442 22.6053 18.0257 22.4022 18.0257C22.1991 18.0257 21.8852 18.0996 21.6082 18.395C21.3312 18.6905 20.5741 19.4106 20.5741 20.8694C20.5741 22.3282 21.6451 23.75 21.7928 23.9532C21.9406 24.1563 23.8979 27.1477 26.8709 28.4403C27.5726 28.7542 28.1265 28.9389 28.5697 29.0681C29.2899 29.2897 29.9362 29.2713 30.4347 29.1789C31.0072 29.0866 32.189 28.4588 32.4475 27.7571C32.6876 27.0554 32.6876 26.4645 32.6137 26.3352C32.5583 26.2614 32.3552 26.1875 32.0597 26.0398Z" fill="black"/>
</svg>
