<svg width="50" height="50" viewBox="0 0 50 50" fill="none" xmlns="http://www.w3.org/2000/svg">
<path d="M24.9998 49.2268C38.2168 49.2268 48.9313 38.5123 48.9313 25.2953C48.9313 12.0784 38.2168 1.36389 24.9998 1.36389C11.7828 1.36389 1.06836 12.0784 1.06836 25.2953C1.06836 38.5123 11.7828 49.2268 24.9998 49.2268Z" stroke="#020202" stroke-miterlimit="10"/>
<path d="M35.4513 16.5047C35.359 16.2647 35.2666 16.1908 35.1189 16.1354C34.7865 16.0061 34.2141 16.1908 34.2141 16.1908C34.2141 16.1908 13.9388 23.4847 12.7755 24.2972C12.517 24.4634 12.4431 24.5742 12.4062 24.685C12.2031 25.2574 12.8309 25.5159 12.8309 25.5159L18.0567 27.2148C18.0567 27.2148 18.2598 27.2517 18.3152 27.1963C19.497 26.4392 30.2809 19.6439 30.9087 19.4038C31.0011 19.3669 31.0749 19.4038 31.0565 19.4777C30.8164 20.3456 21.4543 28.6736 21.4543 28.6736C21.4543 28.6736 21.4174 28.7105 21.3989 28.7659H21.3805L20.9004 33.9547C20.9004 33.9547 20.6972 35.5428 22.2853 33.9547C23.4117 32.8283 24.4827 31.905 25.0367 31.4434C26.8278 32.6806 28.7667 34.0655 29.5977 34.7672C30.0224 35.1365 30.3732 35.1919 30.6502 35.1735C31.4442 35.1365 31.6658 34.2686 31.6658 34.2686C31.6658 34.2686 35.359 19.3854 35.4882 17.3911C35.5067 17.1879 35.5251 17.0771 35.5251 16.9294C35.5067 16.7817 35.4882 16.597 35.4513 16.5047Z" fill="black"/>
</svg>
